<svg width="16" height="17" viewBox="0 0 16 17" fill="none" xmlns="http://www.w3.org/2000/svg">
<g clip-path="url(#clip0_5502_141397)">
<path d="M8 2.09896C4.32 2.09896 1.33333 5.08563 1.33333 8.76562C1.33333 12.4456 4.32 15.4323 8 15.4323C11.68 15.4323 14.6667 12.4456 14.6667 8.76562C14.6667 5.08563 11.68 2.09896 8 2.09896ZM8 12.099C7.63333 12.099 7.33333 11.799 7.33333 11.4323V8.76562C7.33333 8.39896 7.63333 8.09896 8 8.09896C8.36667 8.09896 8.66667 8.39896 8.66667 8.76562V11.4323C8.66667 11.799 8.36667 12.099 8 12.099ZM8.66667 6.76562H7.33333V5.43229H8.66667V6.76562Z" fill="#545454"/>
</g>
<defs>
<clipPath id="clip0_5502_141397">
<rect width="16" height="16" fill="white" transform="translate(0 0.765625)"/>
</clipPath>
</defs>
</svg>
